<svg width="241" height="236" viewBox="0 0 241 236" fill="none" xmlns="http://www.w3.org/2000/svg">
<path d="M2.62125 5.24249C4.06893 5.24249 5.2425 4.06891 5.2425 2.62123C5.2425 1.17355 4.06893 0 2.62125 0C1.17357 0 0 1.17355 0 2.62123C0 4.06891 1.17357 5.24249 2.62125 5.24249Z" fill="#AC3931"/>
<path d="M26.1974 5.24249C27.6451 5.24249 28.8187 4.06891 28.8187 2.62123C28.8187 1.17355 27.6451 0 26.1974 0C24.7497 0 23.5762 1.17355 23.5762 2.62123C23.5762 4.06891 24.7497 5.24249 26.1974 5.24249Z" fill="#AC3931"/>
<path d="M49.7726 5.24249C51.2203 5.24249 52.3939 4.06891 52.3939 2.62123C52.3939 1.17355 51.2203 0 49.7726 0C48.3249 0 47.1514 1.17355 47.1514 2.62123C47.1514 4.06891 48.3249 5.24249 49.7726 5.24249Z" fill="#AC3931"/>
<path d="M75.97 2.62123C75.97 4.06369 74.7912 5.24249 73.3488 5.24249C71.9063 5.24249 70.7275 4.06369 70.7275 2.62123C70.7275 1.17877 71.9063 0 73.3488 0C74.7912 0 75.97 1.17877 75.97 2.62123Z" fill="#AC3931"/>
<path d="M99.5452 2.62123C99.5452 4.06369 98.3665 5.24249 96.924 5.24249C95.4815 5.24249 94.3027 4.06369 94.3027 2.62123C94.3027 1.17877 95.4815 0 96.924 0C98.3665 0 99.5452 1.17877 99.5452 2.62123Z" fill="#AC3931"/>
<path d="M120.5 5.24249C121.948 5.24249 123.121 4.06891 123.121 2.62123C123.121 1.17355 121.948 0 120.5 0C119.052 0 117.879 1.17355 117.879 2.62123C117.879 4.06891 119.052 5.24249 120.5 5.24249Z" fill="#AC3931"/>
<path d="M144.076 5.24249C145.524 5.24249 146.697 4.06891 146.697 2.62123C146.697 1.17355 145.524 0 144.076 0C142.628 0 141.455 1.17355 141.455 2.62123C141.455 4.06891 142.628 5.24249 144.076 5.24249Z" fill="#AC3931"/>
<path d="M167.652 5.24249C169.099 5.24249 170.273 4.06891 170.273 2.62123C170.273 1.17355 169.099 0 167.652 0C166.204 0 165.03 1.17355 165.03 2.62123C165.03 4.06891 166.204 5.24249 167.652 5.24249Z" fill="#AC3931"/>
<path d="M191.227 5.24249C192.675 5.24249 193.848 4.06891 193.848 2.62123C193.848 1.17355 192.675 0 191.227 0C189.78 0 188.606 1.17355 188.606 2.62123C188.606 4.06891 189.78 5.24249 191.227 5.24249Z" fill="#AC3931"/>
<path d="M214.803 5.24249C216.251 5.24249 217.424 4.06891 217.424 2.62123C217.424 1.17355 216.251 0 214.803 0C213.355 0 212.182 1.17355 212.182 2.62123C212.182 4.06891 213.355 5.24249 214.803 5.24249Z" fill="#AC3931"/>
<path d="M238.379 5.24249C239.826 5.24249 241 4.06891 241 2.62123C241 1.17355 239.826 0 238.379 0C236.931 0 235.757 1.17355 235.757 2.62123C235.757 4.06891 236.931 5.24249 238.379 5.24249Z" fill="#AC3931"/>
<path d="M2.62125 26.1966C4.06893 26.1966 5.2425 25.023 5.2425 23.5754C5.2425 22.1277 4.06893 20.9541 2.62125 20.9541C1.17357 20.9541 0 22.1277 0 23.5754C0 25.023 1.17357 26.1966 2.62125 26.1966Z" fill="#AC3931"/>
<path d="M26.1974 26.1966C27.6451 26.1966 28.8187 25.023 28.8187 23.5754C28.8187 22.1277 27.6451 20.9541 26.1974 20.9541C24.7497 20.9541 23.5762 22.1277 23.5762 23.5754C23.5762 25.023 24.7497 26.1966 26.1974 26.1966Z" fill="#AC3931"/>
<path d="M49.7726 26.1966C51.2203 26.1966 52.3939 25.023 52.3939 23.5754C52.3939 22.1277 51.2203 20.9541 49.7726 20.9541C48.3249 20.9541 47.1514 22.1277 47.1514 23.5754C47.1514 25.023 48.3249 26.1966 49.7726 26.1966Z" fill="#AC3931"/>
<path d="M75.97 23.5754C75.97 25.0178 74.7912 26.1966 73.3488 26.1966C71.9063 26.1966 70.7275 25.0178 70.7275 23.5754C70.7275 22.1329 71.9063 20.9541 73.3488 20.9541C74.7912 20.9541 75.97 22.1329 75.97 23.5754Z" fill="#AC3931"/>
<path d="M99.5452 23.5754C99.5452 25.0178 98.3665 26.1966 96.924 26.1966C95.4815 26.1966 94.3027 25.0178 94.3027 23.5754C94.3027 22.1329 95.4815 20.9541 96.924 20.9541C98.3665 20.9541 99.5452 22.1329 99.5452 23.5754Z" fill="#AC3931"/>
<path d="M120.5 26.1966C121.948 26.1966 123.121 25.023 123.121 23.5754C123.121 22.1277 121.948 20.9541 120.5 20.9541C119.052 20.9541 117.879 22.1277 117.879 23.5754C117.879 25.023 119.052 26.1966 120.5 26.1966Z" fill="#AC3931"/>
<path d="M144.076 26.1966C145.524 26.1966 146.697 25.023 146.697 23.5754C146.697 22.1277 145.524 20.9541 144.076 20.9541C142.628 20.9541 141.455 22.1277 141.455 23.5754C141.455 25.023 142.628 26.1966 144.076 26.1966Z" fill="#AC3931"/>
<path d="M167.652 26.1966C169.099 26.1966 170.273 25.023 170.273 23.5754C170.273 22.1277 169.099 20.9541 167.652 20.9541C166.204 20.9541 165.03 22.1277 165.03 23.5754C165.03 25.023 166.204 26.1966 167.652 26.1966Z" fill="#AC3931"/>
<path d="M191.227 26.1966C192.675 26.1966 193.848 25.023 193.848 23.5754C193.848 22.1277 192.675 20.9541 191.227 20.9541C189.78 20.9541 188.606 22.1277 188.606 23.5754C188.606 25.023 189.78 26.1966 191.227 26.1966Z" fill="#AC3931"/>
<path d="M214.803 26.1966C216.251 26.1966 217.424 25.023 217.424 23.5754C217.424 22.1277 216.251 20.9541 214.803 20.9541C213.355 20.9541 212.182 22.1277 212.182 23.5754C212.182 25.023 213.355 26.1966 214.803 26.1966Z" fill="#AC3931"/>
<path d="M238.379 26.1966C239.826 26.1966 241 25.023 241 23.5754C241 22.1277 239.826 20.9541 238.379 20.9541C236.931 20.9541 235.757 22.1277 235.757 23.5754C235.757 25.023 236.931 26.1966 238.379 26.1966Z" fill="#AC3931"/>
<path d="M2.62125 47.1507C4.06893 47.1507 5.2425 45.9771 5.2425 44.5295C5.2425 43.0818 4.06893 41.9082 2.62125 41.9082C1.17357 41.9082 0 43.0818 0 44.5295C0 45.9771 1.17357 47.1507 2.62125 47.1507Z" fill="#AC3931"/>
<path d="M26.1974 47.1507C27.6451 47.1507 28.8187 45.9771 28.8187 44.5295C28.8187 43.0818 27.6451 41.9082 26.1974 41.9082C24.7497 41.9082 23.5762 43.0818 23.5762 44.5295C23.5762 45.9771 24.7497 47.1507 26.1974 47.1507Z" fill="#AC3931"/>
<path d="M49.7726 47.1507C51.2203 47.1507 52.3939 45.9771 52.3939 44.5295C52.3939 43.0818 51.2203 41.9082 49.7726 41.9082C48.3249 41.9082 47.1514 43.0818 47.1514 44.5295C47.1514 45.9771 48.3249 47.1507 49.7726 47.1507Z" fill="#AC3931"/>
<path d="M75.97 44.5295C75.97 45.9719 74.7912 47.1507 73.3488 47.1507C71.9063 47.1507 70.7275 45.9719 70.7275 44.5295C70.7275 43.087 71.9063 41.9082 73.3488 41.9082C74.7912 41.9082 75.97 43.087 75.97 44.5295Z" fill="#AC3931"/>
<path d="M99.5452 44.5295C99.5452 45.9719 98.3665 47.1507 96.924 47.1507C95.4815 47.1507 94.3027 45.9719 94.3027 44.5295C94.3027 43.087 95.4815 41.9082 96.924 41.9082C98.3665 41.9082 99.5452 43.087 99.5452 44.5295Z" fill="#AC3931"/>
<path d="M120.5 47.1507C121.948 47.1507 123.121 45.9771 123.121 44.5295C123.121 43.0818 121.948 41.9082 120.5 41.9082C119.052 41.9082 117.879 43.0818 117.879 44.5295C117.879 45.9771 119.052 47.1507 120.5 47.1507Z" fill="#AC3931"/>
<path d="M144.076 47.1507C145.524 47.1507 146.697 45.9771 146.697 44.5295C146.697 43.0818 145.524 41.9082 144.076 41.9082C142.628 41.9082 141.455 43.0818 141.455 44.5295C141.455 45.9771 142.628 47.1507 144.076 47.1507Z" fill="#AC3931"/>
<path d="M167.652 47.1507C169.099 47.1507 170.273 45.9771 170.273 44.5295C170.273 43.0818 169.099 41.9082 167.652 41.9082C166.204 41.9082 165.03 43.0818 165.03 44.5295C165.03 45.9771 166.204 47.1507 167.652 47.1507Z" fill="#AC3931"/>
<path d="M191.227 47.1507C192.675 47.1507 193.848 45.9771 193.848 44.5295C193.848 43.0818 192.675 41.9082 191.227 41.9082C189.78 41.9082 188.606 43.0818 188.606 44.5295C188.606 45.9771 189.78 47.1507 191.227 47.1507Z" fill="#AC3931"/>
<path d="M214.803 47.1507C216.251 47.1507 217.424 45.9771 217.424 44.5295C217.424 43.0818 216.251 41.9082 214.803 41.9082C213.355 41.9082 212.182 43.0818 212.182 44.5295C212.182 45.9771 213.355 47.1507 214.803 47.1507Z" fill="#AC3931"/>
<path d="M238.379 47.1507C239.826 47.1507 241 45.9771 241 44.5295C241 43.0818 239.826 41.9082 238.379 41.9082C236.931 41.9082 235.757 43.0818 235.757 44.5295C235.757 45.9771 236.931 47.1507 238.379 47.1507Z" fill="#AC3931"/>
<path d="M5.2425 65.4845C5.2425 66.927 4.06371 68.1058 2.62125 68.1058C1.17879 68.1058 0 66.927 0 65.4845C0 64.0421 1.17879 62.8633 2.62125 62.8633C4.06371 62.8633 5.2425 64.0421 5.2425 65.4845Z" fill="#AC3931"/>
<path d="M28.8187 65.4845C28.8187 66.927 27.6399 68.1058 26.1974 68.1058C24.755 68.1058 23.5762 66.927 23.5762 65.4845C23.5762 64.0421 24.755 62.8633 26.1974 62.8633C27.6399 62.8633 28.8187 64.0421 28.8187 65.4845Z" fill="#AC3931"/>
<path d="M52.3939 65.4845C52.3939 66.927 51.2151 68.1058 49.7726 68.1058C48.3302 68.1058 47.1514 66.927 47.1514 65.4845C47.1514 64.0421 48.3302 62.8633 49.7726 62.8633C51.2151 62.8633 52.3939 64.0421 52.3939 65.4845Z" fill="#AC3931"/>
<path d="M75.97 65.4845C75.97 66.927 74.7912 68.1058 73.3488 68.1058C71.9063 68.1058 70.7275 66.927 70.7275 65.4845C70.7275 64.0421 71.9063 62.8633 73.3488 62.8633C74.7912 62.8633 75.97 64.0421 75.97 65.4845Z" fill="#AC3931"/>
<path d="M99.5452 65.4845C99.5452 66.927 98.3665 68.1058 96.924 68.1058C95.4815 68.1058 94.3027 66.927 94.3027 65.4845C94.3027 64.0421 95.4815 62.8633 96.924 62.8633C98.3665 62.8633 99.5452 64.0421 99.5452 65.4845Z" fill="#AC3931"/>
<path d="M123.121 65.4845C123.121 66.927 121.943 68.1058 120.5 68.1058C119.058 68.1058 117.879 66.927 117.879 65.4845C117.879 64.0421 119.058 62.8633 120.5 62.8633C121.943 62.8633 123.121 64.0421 123.121 65.4845Z" fill="#AC3931"/>
<path d="M146.697 65.4845C146.697 66.927 145.518 68.1058 144.076 68.1058C142.633 68.1058 141.455 66.927 141.455 65.4845C141.455 64.0421 142.633 62.8633 144.076 62.8633C145.518 62.8633 146.697 64.0421 146.697 65.4845Z" fill="#AC3931"/>
<path d="M170.273 65.4845C170.273 66.927 169.094 68.1058 167.652 68.1058C166.209 68.1058 165.03 66.927 165.03 65.4845C165.03 64.0421 166.209 62.8633 167.652 62.8633C169.094 62.8633 170.273 64.0421 170.273 65.4845Z" fill="#AC3931"/>
<path d="M193.848 65.4845C193.848 66.927 192.67 68.1058 191.227 68.1058C189.785 68.1058 188.606 66.927 188.606 65.4845C188.606 64.0421 189.785 62.8633 191.227 62.8633C192.67 62.8633 193.848 64.0421 193.848 65.4845Z" fill="#AC3931"/>
<path d="M217.424 65.4845C217.424 66.927 216.245 68.1058 214.803 68.1058C213.36 68.1058 212.182 66.927 212.182 65.4845C212.182 64.0421 213.36 62.8633 214.803 62.8633C216.245 62.8633 217.424 64.0421 217.424 65.4845Z" fill="#AC3931"/>
<path d="M241 65.4845C241 66.927 239.821 68.1058 238.379 68.1058C236.936 68.1058 235.757 66.927 235.757 65.4845C235.757 64.0421 236.936 62.8633 238.379 62.8633C239.821 62.8633 241 64.0421 241 65.4845Z" fill="#AC3931"/>
<path d="M5.2425 86.4386C5.2425 87.8811 4.06371 89.0599 2.62125 89.0599C1.17879 89.0599 0 87.8811 0 86.4386C0 84.9962 1.17879 83.8174 2.62125 83.8174C4.06371 83.8174 5.2425 84.9962 5.2425 86.4386Z" fill="#AC3931"/>
<path d="M28.8187 86.4386C28.8187 87.8811 27.6399 89.0599 26.1974 89.0599C24.755 89.0599 23.5762 87.8811 23.5762 86.4386C23.5762 84.9962 24.755 83.8174 26.1974 83.8174C27.6399 83.8174 28.8187 84.9962 28.8187 86.4386Z" fill="#AC3931"/>
<path d="M52.3939 86.4386C52.3939 87.8811 51.2151 89.0599 49.7726 89.0599C48.3302 89.0599 47.1514 87.8811 47.1514 86.4386C47.1514 84.9962 48.3302 83.8174 49.7726 83.8174C51.2151 83.8174 52.3939 84.9962 52.3939 86.4386Z" fill="#AC3931"/>
<path d="M75.97 86.4386C75.97 87.8811 74.7912 89.0599 73.3488 89.0599C71.9063 89.0599 70.7275 87.8811 70.7275 86.4386C70.7275 84.9962 71.9063 83.8174 73.3488 83.8174C74.7912 83.8174 75.97 84.9962 75.97 86.4386Z" fill="#AC3931"/>
<path d="M99.5452 86.4386C99.5452 87.8811 98.3665 89.0599 96.924 89.0599C95.4815 89.0599 94.3027 87.8811 94.3027 86.4386C94.3027 84.9962 95.4815 83.8174 96.924 83.8174C98.3665 83.8174 99.5452 84.9962 99.5452 86.4386Z" fill="#AC3931"/>
<path d="M123.121 86.4386C123.121 87.8811 121.943 89.0599 120.5 89.0599C119.058 89.0599 117.879 87.8811 117.879 86.4386C117.879 84.9962 119.058 83.8174 120.5 83.8174C121.943 83.8174 123.121 84.9962 123.121 86.4386Z" fill="#AC3931"/>
<path d="M146.697 86.4386C146.697 87.8811 145.518 89.0599 144.076 89.0599C142.633 89.0599 141.455 87.8811 141.455 86.4386C141.455 84.9962 142.633 83.8174 144.076 83.8174C145.518 83.8174 146.697 84.9962 146.697 86.4386Z" fill="#AC3931"/>
<path d="M170.273 86.4386C170.273 87.8811 169.094 89.0599 167.652 89.0599C166.209 89.0599 165.03 87.8811 165.03 86.4386C165.03 84.9962 166.209 83.8174 167.652 83.8174C169.094 83.8174 170.273 84.9962 170.273 86.4386Z" fill="#AC3931"/>
<path d="M193.848 86.4386C193.848 87.8811 192.67 89.0599 191.227 89.0599C189.785 89.0599 188.606 87.8811 188.606 86.4386C188.606 84.9962 189.785 83.8174 191.227 83.8174C192.67 83.8174 193.848 84.9962 193.848 86.4386Z" fill="#AC3931"/>
<path d="M217.424 86.4386C217.424 87.8811 216.245 89.0599 214.803 89.0599C213.36 89.0599 212.182 87.8811 212.182 86.4386C212.182 84.9962 213.36 83.8174 214.803 83.8174C216.245 83.8174 217.424 84.9962 217.424 86.4386Z" fill="#AC3931"/>
<path d="M241 86.4386C241 87.8811 239.821 89.0599 238.379 89.0599C236.936 89.0599 235.757 87.8811 235.757 86.4386C235.757 84.9962 236.936 83.8174 238.379 83.8174C239.821 83.8174 241 84.9962 241 86.4386Z" fill="#AC3931"/>
<path d="M5.2425 107.393C5.2425 108.835 4.06371 110.014 2.62125 110.014C1.17879 110.014 0 108.835 0 107.393C0 105.95 1.17879 104.771 2.62125 104.771C4.06371 104.771 5.2425 105.95 5.2425 107.393Z" fill="#AC3931"/>
<path d="M28.8187 107.393C28.8187 108.835 27.6399 110.014 26.1974 110.014C24.755 110.014 23.5762 108.835 23.5762 107.393C23.5762 105.95 24.755 104.771 26.1974 104.771C27.6399 104.771 28.8187 105.95 28.8187 107.393Z" fill="#AC3931"/>
<path d="M52.3939 107.393C52.3939 108.835 51.2151 110.014 49.7726 110.014C48.3302 110.014 47.1514 108.835 47.1514 107.393C47.1514 105.95 48.3302 104.771 49.7726 104.771C51.2151 104.771 52.3939 105.95 52.3939 107.393Z" fill="#AC3931"/>
<path d="M75.97 107.393C75.97 108.835 74.7912 110.014 73.3488 110.014C71.9063 110.014 70.7275 108.835 70.7275 107.393C70.7275 105.95 71.9063 104.771 73.3488 104.771C74.7912 104.771 75.97 105.95 75.97 107.393Z" fill="#AC3931"/>
<path d="M99.5452 107.393C99.5452 108.835 98.3665 110.014 96.924 110.014C95.4815 110.014 94.3027 108.835 94.3027 107.393C94.3027 105.95 95.4815 104.771 96.924 104.771C98.3665 104.771 99.5452 105.95 99.5452 107.393Z" fill="#AC3931"/>
<path d="M123.121 107.393C123.121 108.835 121.943 110.014 120.5 110.014C119.058 110.014 117.879 108.835 117.879 107.393C117.879 105.95 119.058 104.771 120.5 104.771C121.943 104.771 123.121 105.95 123.121 107.393Z" fill="#AC3931"/>
<path d="M146.697 107.393C146.697 108.835 145.518 110.014 144.076 110.014C142.633 110.014 141.455 108.835 141.455 107.393C141.455 105.95 142.633 104.771 144.076 104.771C145.518 104.771 146.697 105.95 146.697 107.393Z" fill="#AC3931"/>
<path d="M170.273 107.393C170.273 108.835 169.094 110.014 167.652 110.014C166.209 110.014 165.03 108.835 165.03 107.393C165.03 105.95 166.209 104.771 167.652 104.771C169.094 104.771 170.273 105.95 170.273 107.393Z" fill="#AC3931"/>
<path d="M193.848 107.393C193.848 108.835 192.67 110.014 191.227 110.014C189.785 110.014 188.606 108.835 188.606 107.393C188.606 105.95 189.785 104.771 191.227 104.771C192.67 104.771 193.848 105.95 193.848 107.393Z" fill="#AC3931"/>
<path d="M217.424 107.393C217.424 108.835 216.245 110.014 214.803 110.014C213.36 110.014 212.182 108.835 212.182 107.393C212.182 105.95 213.36 104.771 214.803 104.771C216.245 104.771 217.424 105.95 217.424 107.393Z" fill="#AC3931"/>
<path d="M241 107.393C241 108.835 239.821 110.014 238.379 110.014C236.936 110.014 235.757 108.835 235.757 107.393C235.757 105.95 236.936 104.771 238.379 104.771C239.821 104.771 241 105.95 241 107.393Z" fill="#AC3931"/>
<path d="M2.62125 130.968C4.06893 130.968 5.2425 129.795 5.2425 128.347C5.2425 126.899 4.06893 125.726 2.62125 125.726C1.17357 125.726 0 126.899 0 128.347C0 129.795 1.17357 130.968 2.62125 130.968Z" fill="#AC3931"/>
<path d="M26.1974 130.968C27.6451 130.968 28.8187 129.795 28.8187 128.347C28.8187 126.899 27.6451 125.726 26.1974 125.726C24.7497 125.726 23.5762 126.899 23.5762 128.347C23.5762 129.795 24.7497 130.968 26.1974 130.968Z" fill="#AC3931"/>
<path d="M49.7726 130.968C51.2203 130.968 52.3939 129.795 52.3939 128.347C52.3939 126.899 51.2203 125.726 49.7726 125.726C48.3249 125.726 47.1514 126.899 47.1514 128.347C47.1514 129.795 48.3249 130.968 49.7726 130.968Z" fill="#AC3931"/>
<path d="M75.97 128.347C75.97 129.789 74.7912 130.968 73.3488 130.968C71.9063 130.968 70.7275 129.789 70.7275 128.347C70.7275 126.904 71.9063 125.726 73.3488 125.726C74.7912 125.741 75.97 126.904 75.97 128.347Z" fill="#AC3931"/>
<path d="M99.5452 128.347C99.5452 129.789 98.3665 130.968 96.924 130.968C95.4815 130.968 94.3027 129.789 94.3027 128.347C94.3027 126.904 95.4815 125.726 96.924 125.726C98.3665 125.741 99.5452 126.904 99.5452 128.347Z" fill="#AC3931"/>
<path d="M120.5 130.968C121.948 130.968 123.121 129.795 123.121 128.347C123.121 126.899 121.948 125.726 120.5 125.726C119.052 125.726 117.879 126.899 117.879 128.347C117.879 129.795 119.052 130.968 120.5 130.968Z" fill="#AC3931"/>
<path d="M144.076 130.968C145.524 130.968 146.697 129.795 146.697 128.347C146.697 126.899 145.524 125.726 144.076 125.726C142.628 125.726 141.455 126.899 141.455 128.347C141.455 129.795 142.628 130.968 144.076 130.968Z" fill="#AC3931"/>
<path d="M167.652 130.968C169.099 130.968 170.273 129.795 170.273 128.347C170.273 126.899 169.099 125.726 167.652 125.726C166.204 125.726 165.03 126.899 165.03 128.347C165.03 129.795 166.204 130.968 167.652 130.968Z" fill="#AC3931"/>
<path d="M191.227 130.968C192.675 130.968 193.848 129.795 193.848 128.347C193.848 126.899 192.675 125.726 191.227 125.726C189.78 125.726 188.606 126.899 188.606 128.347C188.606 129.795 189.78 130.968 191.227 130.968Z" fill="#AC3931"/>
<path d="M214.803 130.968C216.251 130.968 217.424 129.795 217.424 128.347C217.424 126.899 216.251 125.726 214.803 125.726C213.355 125.726 212.182 126.899 212.182 128.347C212.182 129.795 213.355 130.968 214.803 130.968Z" fill="#AC3931"/>
<path d="M238.379 130.968C239.826 130.968 241 129.795 241 128.347C241 126.899 239.826 125.726 238.379 125.726C236.931 125.726 235.757 126.899 235.757 128.347C235.757 129.795 236.931 130.968 238.379 130.968Z" fill="#AC3931"/>
<path d="M5.2425 149.319C5.2425 150.761 4.06371 151.94 2.62125 151.94C1.17879 151.94 0 150.761 0 149.319C0 147.876 1.17879 146.697 2.62125 146.697C4.06371 146.697 5.2425 147.861 5.2425 149.319Z" fill="#AC3931"/>
<path d="M28.8187 149.319C28.8187 150.761 27.6399 151.94 26.1974 151.94C24.755 151.94 23.5762 150.761 23.5762 149.319C23.5762 147.876 24.755 146.697 26.1974 146.697C27.6399 146.697 28.8187 147.861 28.8187 149.319Z" fill="#AC3931"/>
<path d="M52.3939 149.319C52.3939 150.761 51.2151 151.94 49.7726 151.94C48.3302 151.94 47.1514 150.761 47.1514 149.319C47.1514 147.876 48.3302 146.697 49.7726 146.697C51.2151 146.697 52.3939 147.861 52.3939 149.319Z" fill="#AC3931"/>
<path d="M75.97 149.319C75.97 150.761 74.7912 151.94 73.3488 151.94C71.9063 151.94 70.7275 150.761 70.7275 149.319C70.7275 147.876 71.9063 146.697 73.3488 146.697C74.7912 146.697 75.97 147.861 75.97 149.319Z" fill="#AC3931"/>
<path d="M99.5452 149.319C99.5452 150.761 98.3665 151.94 96.924 151.94C95.4815 151.94 94.3027 150.761 94.3027 149.319C94.3027 147.876 95.4815 146.697 96.924 146.697C98.3665 146.697 99.5452 147.861 99.5452 149.319Z" fill="#AC3931"/>
<path d="M123.121 149.319C123.121 150.761 121.943 151.94 120.5 151.94C119.058 151.94 117.879 150.761 117.879 149.319C117.879 147.876 119.058 146.697 120.5 146.697C121.943 146.697 123.121 147.861 123.121 149.319Z" fill="#AC3931"/>
<path d="M146.697 149.319C146.697 150.761 145.518 151.94 144.076 151.94C142.633 151.94 141.455 150.761 141.455 149.319C141.455 147.876 142.633 146.697 144.076 146.697C145.518 146.697 146.697 147.861 146.697 149.319Z" fill="#AC3931"/>
<path d="M170.273 149.319C170.273 150.761 169.094 151.94 167.652 151.94C166.209 151.94 165.03 150.761 165.03 149.319C165.03 147.876 166.209 146.697 167.652 146.697C169.094 146.697 170.273 147.861 170.273 149.319Z" fill="#AC3931"/>
<path d="M193.848 149.319C193.848 150.761 192.67 151.94 191.227 151.94C189.785 151.94 188.606 150.761 188.606 149.319C188.606 147.876 189.785 146.697 191.227 146.697C192.67 146.697 193.848 147.861 193.848 149.319Z" fill="#AC3931"/>
<path d="M217.424 149.319C217.424 150.761 216.245 151.94 214.803 151.94C213.36 151.94 212.182 150.761 212.182 149.319C212.182 147.876 213.36 146.697 214.803 146.697C216.245 146.697 217.424 147.861 217.424 149.319Z" fill="#AC3931"/>
<path d="M241 149.319C241 150.761 239.821 151.94 238.379 151.94C236.936 151.94 235.757 150.761 235.757 149.319C235.757 147.876 236.936 146.697 238.379 146.697C239.821 146.697 241 147.861 241 149.319Z" fill="#AC3931"/>
<path d="M5.2425 170.273C5.2425 171.715 4.06371 172.894 2.62125 172.894C1.17879 172.894 0 171.715 0 170.273C0 168.83 1.17879 167.651 2.62125 167.651C4.06371 167.651 5.2425 168.815 5.2425 170.273Z" fill="#AC3931"/>
<path d="M28.8187 170.273C28.8187 171.715 27.6399 172.894 26.1974 172.894C24.755 172.894 23.5762 171.715 23.5762 170.273C23.5762 168.83 24.755 167.651 26.1974 167.651C27.6399 167.651 28.8187 168.815 28.8187 170.273Z" fill="#AC3931"/>
<path d="M52.3939 170.273C52.3939 171.715 51.2151 172.894 49.7726 172.894C48.3302 172.894 47.1514 171.715 47.1514 170.273C47.1514 168.83 48.3302 167.651 49.7726 167.651C51.2151 167.651 52.3939 168.815 52.3939 170.273Z" fill="#AC3931"/>
<path d="M75.97 170.273C75.97 171.715 74.7912 172.894 73.3488 172.894C71.9063 172.894 70.7275 171.715 70.7275 170.273C70.7275 168.83 71.9063 167.651 73.3488 167.651C74.7912 167.651 75.97 168.815 75.97 170.273Z" fill="#AC3931"/>
<path d="M99.5452 170.273C99.5452 171.715 98.3665 172.894 96.924 172.894C95.4815 172.894 94.3027 171.715 94.3027 170.273C94.3027 168.83 95.4815 167.651 96.924 167.651C98.3665 167.651 99.5452 168.815 99.5452 170.273Z" fill="#AC3931"/>
<path d="M123.121 170.273C123.121 171.715 121.943 172.894 120.5 172.894C119.058 172.894 117.879 171.715 117.879 170.273C117.879 168.83 119.058 167.651 120.5 167.651C121.943 167.651 123.121 168.815 123.121 170.273Z" fill="#AC3931"/>
<path d="M146.697 170.273C146.697 171.715 145.518 172.894 144.076 172.894C142.633 172.894 141.455 171.715 141.455 170.273C141.455 168.83 142.633 167.651 144.076 167.651C145.518 167.651 146.697 168.815 146.697 170.273Z" fill="#AC3931"/>
<path d="M170.273 170.273C170.273 171.715 169.094 172.894 167.652 172.894C166.209 172.894 165.03 171.715 165.03 170.273C165.03 168.83 166.209 167.651 167.652 167.651C169.094 167.651 170.273 168.815 170.273 170.273Z" fill="#AC3931"/>
<path d="M193.848 170.273C193.848 171.715 192.67 172.894 191.227 172.894C189.785 172.894 188.606 171.715 188.606 170.273C188.606 168.83 189.785 167.651 191.227 167.651C192.67 167.651 193.848 168.815 193.848 170.273Z" fill="#AC3931"/>
<path d="M217.424 170.273C217.424 171.715 216.245 172.894 214.803 172.894C213.36 172.894 212.182 171.715 212.182 170.273C212.182 168.83 213.36 167.651 214.803 167.651C216.245 167.651 217.424 168.815 217.424 170.273Z" fill="#AC3931"/>
<path d="M241 170.273C241 171.715 239.821 172.894 238.379 172.894C236.936 172.894 235.757 171.715 235.757 170.273C235.757 168.83 236.936 167.651 238.379 167.651C239.821 167.651 241 168.815 241 170.273Z" fill="#AC3931"/>
<path d="M5.2425 191.227C5.2425 192.669 4.06371 193.848 2.62125 193.848C1.17879 193.848 0 192.669 0 191.227C0 189.784 1.17879 188.605 2.62125 188.605C4.06371 188.605 5.2425 189.784 5.2425 191.227Z" fill="#AC3931"/>
<path d="M28.8187 191.227C28.8187 192.669 27.6399 193.848 26.1974 193.848C24.755 193.848 23.5762 192.669 23.5762 191.227C23.5762 189.784 24.755 188.605 26.1974 188.605C27.6399 188.605 28.8187 189.784 28.8187 191.227Z" fill="#AC3931"/>
<path d="M52.3939 191.227C52.3939 192.669 51.2151 193.848 49.7726 193.848C48.3302 193.848 47.1514 192.669 47.1514 191.227C47.1514 189.784 48.3302 188.605 49.7726 188.605C51.2151 188.605 52.3939 189.784 52.3939 191.227Z" fill="#AC3931"/>
<path d="M75.97 191.227C75.97 192.669 74.7912 193.848 73.3488 193.848C71.9063 193.848 70.7275 192.669 70.7275 191.227C70.7275 189.784 71.9063 188.605 73.3488 188.605C74.7912 188.605 75.97 189.784 75.97 191.227Z" fill="#AC3931"/>
<path d="M99.5452 191.227C99.5452 192.669 98.3665 193.848 96.924 193.848C95.4815 193.848 94.3027 192.669 94.3027 191.227C94.3027 189.784 95.4815 188.605 96.924 188.605C98.3665 188.605 99.5452 189.784 99.5452 191.227Z" fill="#AC3931"/>
<path d="M123.121 191.227C123.121 192.669 121.943 193.848 120.5 193.848C119.058 193.848 117.879 192.669 117.879 191.227C117.879 189.784 119.058 188.605 120.5 188.605C121.943 188.605 123.121 189.784 123.121 191.227Z" fill="#AC3931"/>
<path d="M146.697 191.227C146.697 192.669 145.518 193.848 144.076 193.848C142.633 193.848 141.455 192.669 141.455 191.227C141.455 189.784 142.633 188.605 144.076 188.605C145.518 188.605 146.697 189.784 146.697 191.227Z" fill="#AC3931"/>
<path d="M170.273 191.227C170.273 192.669 169.094 193.848 167.652 193.848C166.209 193.848 165.03 192.669 165.03 191.227C165.03 189.784 166.209 188.605 167.652 188.605C169.094 188.605 170.273 189.784 170.273 191.227Z" fill="#AC3931"/>
<path d="M193.848 191.227C193.848 192.669 192.67 193.848 191.227 193.848C189.785 193.848 188.606 192.669 188.606 191.227C188.606 189.784 189.785 188.605 191.227 188.605C192.67 188.605 193.848 189.784 193.848 191.227Z" fill="#AC3931"/>
<path d="M217.424 191.227C217.424 192.669 216.245 193.848 214.803 193.848C213.36 193.848 212.182 192.669 212.182 191.227C212.182 189.784 213.36 188.605 214.803 188.605C216.245 188.605 217.424 189.784 217.424 191.227Z" fill="#AC3931"/>
<path d="M241 191.227C241 192.669 239.821 193.848 238.379 193.848C236.936 193.848 235.757 192.669 235.757 191.227C235.757 189.784 236.936 188.605 238.379 188.605C239.821 188.605 241 189.784 241 191.227Z" fill="#AC3931"/>
<path d="M2.62125 214.803C4.06893 214.803 5.2425 213.629 5.2425 212.182C5.2425 210.734 4.06893 209.561 2.62125 209.561C1.17357 209.561 0 210.734 0 212.182C0 213.629 1.17357 214.803 2.62125 214.803Z" fill="#AC3931"/>
<path d="M26.1974 214.803C27.6451 214.803 28.8187 213.629 28.8187 212.182C28.8187 210.734 27.6451 209.561 26.1974 209.561C24.7497 209.561 23.5762 210.734 23.5762 212.182C23.5762 213.629 24.7497 214.803 26.1974 214.803Z" fill="#AC3931"/>
<path d="M49.7726 214.803C51.2203 214.803 52.3939 213.629 52.3939 212.182C52.3939 210.734 51.2203 209.561 49.7726 209.561C48.3249 209.561 47.1514 210.734 47.1514 212.182C47.1514 213.629 48.3249 214.803 49.7726 214.803Z" fill="#AC3931"/>
<path d="M75.97 212.182C75.97 213.624 74.7912 214.803 73.3488 214.803C71.9063 214.803 70.7275 213.624 70.7275 212.182C70.7275 210.739 71.9063 209.561 73.3488 209.561C74.7912 209.561 75.97 210.739 75.97 212.182Z" fill="#AC3931"/>
<path d="M99.5452 212.182C99.5452 213.624 98.3665 214.803 96.924 214.803C95.4815 214.803 94.3027 213.624 94.3027 212.182C94.3027 210.739 95.4815 209.561 96.924 209.561C98.3665 209.561 99.5452 210.739 99.5452 212.182Z" fill="#AC3931"/>
<path d="M120.5 214.803C121.948 214.803 123.121 213.629 123.121 212.182C123.121 210.734 121.948 209.561 120.5 209.561C119.052 209.561 117.879 210.734 117.879 212.182C117.879 213.629 119.052 214.803 120.5 214.803Z" fill="#AC3931"/>
<path d="M144.076 214.803C145.524 214.803 146.697 213.629 146.697 212.182C146.697 210.734 145.524 209.561 144.076 209.561C142.628 209.561 141.455 210.734 141.455 212.182C141.455 213.629 142.628 214.803 144.076 214.803Z" fill="#AC3931"/>
<path d="M167.652 214.803C169.099 214.803 170.273 213.629 170.273 212.182C170.273 210.734 169.099 209.561 167.652 209.561C166.204 209.561 165.03 210.734 165.03 212.182C165.03 213.629 166.204 214.803 167.652 214.803Z" fill="#AC3931"/>
<path d="M191.227 214.803C192.675 214.803 193.848 213.629 193.848 212.182C193.848 210.734 192.675 209.561 191.227 209.561C189.78 209.561 188.606 210.734 188.606 212.182C188.606 213.629 189.78 214.803 191.227 214.803Z" fill="#AC3931"/>
<path d="M214.803 214.803C216.251 214.803 217.424 213.629 217.424 212.182C217.424 210.734 216.251 209.561 214.803 209.561C213.355 209.561 212.182 210.734 212.182 212.182C212.182 213.629 213.355 214.803 214.803 214.803Z" fill="#AC3931"/>
<path d="M238.379 214.803C239.826 214.803 241 213.629 241 212.182C241 210.734 239.826 209.561 238.379 209.561C236.931 209.561 235.757 210.734 235.757 212.182C235.757 213.629 236.931 214.803 238.379 214.803Z" fill="#AC3931"/>
<path d="M5.2425 233.136C5.2425 234.578 4.06371 235.757 2.62125 235.757C1.17879 235.757 0 234.578 0 233.136C0 231.693 1.17879 230.515 2.62125 230.515C4.06371 230.515 5.2425 231.693 5.2425 233.136Z" fill="#AC3931"/>
<path d="M28.8187 233.136C28.8187 234.578 27.6399 235.757 26.1974 235.757C24.755 235.757 23.5762 234.578 23.5762 233.136C23.5762 231.693 24.755 230.515 26.1974 230.515C27.6399 230.515 28.8187 231.693 28.8187 233.136Z" fill="#AC3931"/>
<path d="M52.3939 233.136C52.3939 234.578 51.2151 235.757 49.7726 235.757C48.3302 235.757 47.1514 234.578 47.1514 233.136C47.1514 231.693 48.3302 230.515 49.7726 230.515C51.2151 230.515 52.3939 231.693 52.3939 233.136Z" fill="#AC3931"/>
<path d="M75.97 233.136C75.97 234.578 74.7912 235.757 73.3488 235.757C71.9063 235.757 70.7275 234.578 70.7275 233.136C70.7275 231.693 71.9063 230.515 73.3488 230.515C74.7912 230.515 75.97 231.693 75.97 233.136Z" fill="#AC3931"/>
<path d="M99.5452 233.136C99.5452 234.578 98.3665 235.757 96.924 235.757C95.4815 235.757 94.3027 234.578 94.3027 233.136C94.3027 231.693 95.4815 230.515 96.924 230.515C98.3665 230.515 99.5452 231.693 99.5452 233.136Z" fill="#AC3931"/>
<path d="M123.121 233.136C123.121 234.578 121.943 235.757 120.5 235.757C119.058 235.757 117.879 234.578 117.879 233.136C117.879 231.693 119.058 230.515 120.5 230.515C121.943 230.515 123.121 231.693 123.121 233.136Z" fill="#AC3931"/>
<path d="M146.697 233.136C146.697 234.578 145.518 235.757 144.076 235.757C142.633 235.757 141.455 234.578 141.455 233.136C141.455 231.693 142.633 230.515 144.076 230.515C145.518 230.515 146.697 231.693 146.697 233.136Z" fill="#AC3931"/>
<path d="M170.273 233.136C170.273 234.578 169.094 235.757 167.652 235.757C166.209 235.757 165.03 234.578 165.03 233.136C165.03 231.693 166.209 230.515 167.652 230.515C169.094 230.515 170.273 231.693 170.273 233.136Z" fill="#AC3931"/>
<path d="M193.848 233.136C193.848 234.578 192.67 235.757 191.227 235.757C189.785 235.757 188.606 234.578 188.606 233.136C188.606 231.693 189.785 230.515 191.227 230.515C192.67 230.515 193.848 231.693 193.848 233.136Z" fill="#AC3931"/>
<path d="M217.424 233.136C217.424 234.578 216.245 235.757 214.803 235.757C213.36 235.757 212.182 234.578 212.182 233.136C212.182 231.693 213.36 230.515 214.803 230.515C216.245 230.515 217.424 231.693 217.424 233.136Z" fill="#AC3931"/>
<path d="M241 233.136C241 234.578 239.821 235.757 238.379 235.757C236.936 235.757 235.757 234.578 235.757 233.136C235.757 231.693 236.936 230.515 238.379 230.515C239.821 230.515 241 231.693 241 233.136Z" fill="#AC3931"/>
</svg>
