<svg width="150" height="76" viewBox="0 0 150 76" fill="none" xmlns="http://www.w3.org/2000/svg">
<path d="M143.836 57.8745C144.055 52.6118 144.272 47.3472 144.512 41.5506C147.825 42.8289 149.165 45.358 149.312 47.9304C149.747 55.5644 150.098 63.2491 149.688 70.8706C149.451 75.2367 145.984 76.6351 142.307 74.3135C136.17 70.4384 130.231 66.2465 124.214 62.1814C123.862 61.9436 123.368 61.6966 123.264 61.3552C122.927 60.2616 122.742 59.12 122.499 57.9975C123.461 57.8096 124.6 57.1968 125.357 57.51C127.91 58.5627 130.331 59.9401 132.798 61.199C134.092 61.8605 135.38 62.5326 137.553 62.5352C136.543 60.5721 135.615 58.558 134.51 56.6497C112.034 17.842 67.8235 -1.03977 24.0742 9.5927C18.4813 10.9514 13.0575 13.0029 7.54528 14.6994C5.62421 15.2903 3.67217 15.7804 1.73391 16.3171C1.46925 15.919 1.20367 15.5193 0.93772 15.1209C1.68449 14.0649 2.19929 12.5919 3.21791 12.0256C6.7566 10.0598 10.3608 8.12264 14.1323 6.67892C52.3355 -7.93671 97.0045 3.06606 125.453 34.3759C130.878 40.3474 135.205 47.3182 139.995 53.8609C140.981 55.2061 141.769 56.6968 142.649 58.1211C143.045 58.0381 143.441 57.9565 143.836 57.8745" fill="white"/>
</svg>
